# Alias OBJ Model File
# Exported from SketchUp, (c) 2000-2012 Trimble Navigation Limited
# File units = meters

mtllib Floor.mtl

g Mesh1 Model

usemtl M_0131_Silver
v 1.5125 0 0.808464
vt -59.5471 -31.8293
vn 0 -1 -0
v -1.4875 0 0.808464
vt 58.5632 -31.8293
v -1.4875 0 -0.811536
vt 58.5632 31.9502
v 1.5125 0 -0.811536
vt -59.5471 31.9502
f 1/1/1 2/2/1 3/3/1 4/4/1 

vt -58.5632 0
vn 2.40637e-16 0 1
vt 59.5471 0
v 1.5125 0.001 0.808464
vt 59.5471 0.0393701
v -1.4875 0.001 0.808464
vt -58.5632 0.0393701
f 2/5/2 1/6/2 5/7/2 6/8/2 

vt -31.8293 0
vn 1 0 -0
vt 31.9502 0
v 1.5125 0.001 -0.811536
vt 31.9502 0.0393701
vt -31.8293 0.0393701
f 1/9/3 4/10/3 7/11/3 5/12/3 

vt -59.5471 0
vn 0 0 -1
vt 58.5632 0
v -1.4875 0.001 -0.811536
vt 58.5632 0.0393701
vt -59.5471 0.0393701
f 4/13/4 3/14/4 8/15/4 7/16/4 

vt -31.9502 0
vn -1 0 -0
vt 31.8293 0
vt 31.8293 0.0393701
vt -31.9502 0.0393701
f 3/17/5 2/18/5 6/19/5 8/20/5 

vt -58.5632 -31.8293
vn 0 1 -0
vt 59.5471 -31.8293
vt 59.5471 31.9502
vt -58.5632 31.9502
f 6/21/6 5/22/6 7/23/6 8/24/6 

