# Alias OBJ Model File
# Exported from SketchUp, (c) 2000-2012 Trimble Navigation Limited
# File units = meters

mtllib SceneBoxes.mtl

g Mesh1 Model

usemtl M_0056_Yellow
v 0.523772 0.319179 -0.173495
vt -21.2766 2.76625
vn -0.258819 -0.855225 -0.449003
v 0.523772 0.11 0.224932
vt -13.4429 -13.1243
v 0.0891058 0.213121 0.279072
vt 2.44765 -5.29061
v 0.0891058 0.422299 -0.119356
vt -5.38602 10.5999
f 1/1/1 2/2/1 3/3/1 4/4/1 

vt -11.3364 8.65384
vn 0.965926 -0.229157 -0.12031
vt 4.22941 17.1144
v 0.640241 0.70403 0.0285563
vt -4.23112 32.6802
v 0.640241 0.494851 0.426983
vt -19.797 24.2197
f 2/5/2 1/6/2 5/7/2 6/8/2 

vt -20.621 7.95084
vn -1.36397e-15 0.464842 -0.885394
vt -3.5081 12.5362
v 0.205574 0.807151 0.0826958
vt -8.09348 29.6491
vt -25.2063 25.0637
f 1/9/3 4/10/3 7/11/3 5/12/3 

vt -4.22941 17.1144
vn -0.965926 0.229157 0.12031
vt 11.3364 8.65384
v 0.205574 0.597972 0.481123
vt 19.797 24.2197
vt 4.23112 32.6802
f 4/13/4 3/14/4 8/15/4 7/16/4 

vt 3.5081 12.5362
vn 8.05255e-16 -0.464842 0.885394
vt 20.621 7.95084
vt 25.2063 25.0637
vt 8.09348 29.6491
f 3/17/5 2/18/5 6/19/5 8/20/5 

vt 13.4429 -13.1243
vn 0.258819 0.855225 0.449003
vt 21.2766 2.76625
vt 5.38602 10.5999
vt -2.44765 -5.29061
f 6/21/6 5/22/6 7/23/6 8/24/6 

g Mesh2 Model

usemtl M_0097_DeepSkyBlue
v -0.616053 -0.0497339 -0.16549
vt -2.41633 15.4506
vn 0.690128 0.675823 0.258819
v -0.53284 0.0317549 -0.600157
vt 14.7572 19.8033
v -0.847688 0.353268 -0.600157
vt 10.4045 36.9769
v -0.930902 0.271779 -0.16549
vt -6.76903 32.6242
f 9/25/7 10/26/7 11/27/7 12/28/7 

v -0.926611 -0.353854 -0.281959
vt 11.1007 -35.8117
vn 0.699663 -0.714473 1.98953e-16
v -0.843397 -0.272365 -0.716625
vt 28.2136 -31.2263
vt 23.6282 -14.1135
vt 6.51535 -18.6988
f 13/29/8 14/30/8 10/31/8 9/32/8 

vt -14.7572 19.8033
vn -0.690128 -0.675823 -0.258819
vt 2.41633 15.4506
v -1.24146 -0.0323415 -0.281959
vt 6.76903 32.6242
v -1.15825 0.0491473 -0.716625
vt -10.4045 36.9769
f 14/33/9 13/34/9 15/35/9 16/36/9 

vt -50.0918 -1.56237
vn -0.184919 -0.181086 0.965926
vt -37.9173 -14.4331
vt -25.0465 -2.25862
vt -37.2211 10.6121
f 15/37/10 13/38/10 9/39/10 12/40/10 

vt -28.2136 -31.2263
vn -0.699663 0.714473 -1.9284e-15
vt -11.1007 -35.8117
vt -6.51535 -18.6988
vt -23.6282 -14.1135
f 16/41/11 15/42/11 12/43/11 11/44/11 

vt 37.9173 -14.4331
vn 0.184919 0.181086 -0.965926
vt 50.0918 -1.56237
vt 37.2211 10.6121
vt 25.0465 -2.25862
f 14/45/12 16/46/12 11/47/12 10/48/12 

g Mesh3 Model

usemtl M_0065_Lime
v 0.961046 -0.19 -0.437962
vt -37.8364 -11.6881
vn 1.20152e-16 0.258819 -0.965926
v 0.522757 -0.288518 -0.464359
vt -20.581 -15.7036
v 0.420763 0.134837 -0.350922
vt -16.5655 1.55187
v 0.859053 0.233355 -0.324524
vt -33.821 5.56734
f 17/49/13 18/50/13 19/51/13 20/52/13 

vt -16.6076 33.3265
vn 0.226651 -0.940789 -0.252084
v 0.961046 -0.306469 -0.00329501
vt -28.0493 19.8001
v 0.522757 -0.404986 -0.0296928
vt -14.5229 8.35844
vt -3.08122 21.8849
f 17/53/14 21/54/14 22/55/14 18/56/14 

vt 2.40422 -20.0398
vn 0.973976 0.218928 0.0586617
vt 19.4861 -15.3404
vt 14.7867 1.74151
v 0.859053 0.116886 0.110143
vt -2.29516 -2.95786
f 21/57/15 17/58/15 20/59/15 23/60/15 

vt 28.0493 19.8001
vn -0.226651 0.940789 0.252084
vt 16.6076 33.3265
vt 3.08122 21.8849
v 0.420763 0.0183685 0.0837448
vt 14.5229 8.35844
f 23/61/16 20/62/16 19/63/16 24/64/16 

vt -19.4861 -15.3404
vn -0.973976 -0.218928 -0.0586617
vt -2.40422 -20.0398
vt 2.29516 -2.95786
vt -14.7867 1.74151
f 18/65/17 22/66/17 24/67/17 19/68/17 

vt 20.581 -15.7036
vn -1.7086e-15 -0.258819 0.965926
vt 37.8364 -11.6881
vt 33.821 5.56734
vt 16.5655 1.55187
f 22/69/18 21/70/18 23/71/18 24/72/18 

g Mesh4 Model

usemtl M_0126_Violet
v -0.0472839 0.228998 0.155261
vt 1.86157 9.23105
vn 4.17302e-15 0.91496 -0.403545
v -0.272284 0.0717319 -0.201309
vt 10.7198 -6.11192
v -0.661995 0.16253 0.00455669
vt 26.0628 2.74635
v -0.436995 0.319796 0.361127
vt 17.2045 18.0893
f 25/73/19 26/74/19 27/75/19 28/76/19 

v -0.0472839 -0.182734 0.336856
vt -10.857 -8.62828
vn 0.866025 -0.201773 -0.45748
v -0.272284 -0.34 -0.0197139
vt 5.69336 -14.9499
vt 12.015 1.60043
vt -4.53535 7.92203
f 29/77/20 30/78/20 26/79/20 25/80/20 

vt -10.7198 -6.11192
vn 1.36462e-15 -0.91496 0.403545
vt -1.86157 9.23105
v -0.436995 -0.0919361 0.542722
vt -17.2045 18.0893
v -0.661995 -0.249202 0.186152
vt -26.0628 2.74635
f 30/81/21 29/82/21 31/83/21 32/84/21 

vt -25.9525 -6.49783
vn 0.5 0.34948 0.792378
vt -8.65164 -10.3131
vt -4.83635 6.98772
vt -22.1372 10.803
f 31/85/22 29/86/22 25/87/22 28/88/22 

vt -5.69336 -14.9499
vn -0.866025 0.201773 0.45748
vt 10.857 -8.62828
vt 4.53535 7.92203
vt -12.015 1.60043
f 32/89/23 31/90/23 28/91/23 27/92/23 

vt 8.65164 -10.3131
vn -0.5 -0.34948 -0.792378
vt 25.9525 -6.49783
vt 22.1372 10.803
vt 4.83635 6.98772
f 30/93/24 32/94/24 27/95/24 26/96/24 

